<?xml version="1.0" standalone="no"?>
<!DOCTYPE svg PUBLIC "-//W3C//DTD SVG 20010904//EN"
 "http://www.w3.org/TR/2001/REC-SVG-20010904/DTD/svg10.dtd">
<svg version="1.0" xmlns="http://www.w3.org/2000/svg"
 width="673.000000pt" height="371.000000pt" viewBox="0 0 673.000000 371.000000"
 preserveAspectRatio="xMidYMid meet">

<g transform="translate(0.000000,371.000000) scale(0.100000,-0.100000)"
fill="#000000" stroke="none">
<path d="M905 2420 c-178 -26 -300 -101 -359 -222 -15 -30 -29 -71 -33 -91
l-6 -37 134 0 134 0 22 48 c36 76 105 112 216 112 59 0 118 -18 149 -47 46
-41 41 -148 -8 -180 -39 -25 -117 -42 -249 -54 -166 -15 -258 -34 -330 -68
-129 -60 -194 -150 -203 -278 -6 -92 10 -150 55 -203 123 -144 443 -147 591
-7 l32 31 0 -52 0 -52 144 0 143 0 1 79 c1 74 12 130 99 521 16 73 26 150 27
210 1 111 -13 146 -82 204 -88 73 -303 112 -477 86z m205 -679 c-36 -115 -65
-168 -118 -208 -73 -56 -180 -70 -259 -34 -59 27 -77 58 -71 126 4 46 10 62
39 91 42 43 98 60 241 73 59 6 122 17 140 25 57 25 58 22 28 -73z"/>
<path d="M2320 2419 c-114 -22 -223 -100 -273 -194 -10 -19 -16 -24 -17 -13 0
20 26 145 35 171 7 16 -4 17 -133 17 l-140 0 -6 -26 c-6 -22 -41 -193 -181
-869 -12 -60 -26 -127 -29 -147 l-7 -38 145 0 145 0 11 58 c11 53 20 96 83
392 41 190 87 273 185 338 l55 37 124 0 123 0 6 35 c3 19 16 81 28 137 l23
101 -30 6 c-38 8 -91 6 -147 -5z"/>
<path d="M3505 2424 c-74 -11 -174 -39 -219 -61 -95 -48 -181 -160 -200 -260
l-5 -33 134 0 134 0 19 43 c36 78 105 117 211 117 81 0 125 -15 160 -56 53
-60 39 -144 -30 -180 -39 -20 -149 -40 -264 -49 -203 -15 -335 -62 -417 -147
-59 -61 -83 -127 -82 -228 0 -132 62 -214 195 -259 138 -47 337 -15 433 70
l46 41 0 -51 0 -51 145 0 145 0 0 78 c1 42 7 104 14 137 13 57 71 317 101 455
18 82 19 211 2 253 -33 78 -106 131 -223 161 -60 15 -245 28 -299 20z m201
-609 c-3 -9 -13 -43 -22 -77 -46 -180 -156 -271 -309 -255 -71 7 -109 29 -130
73 -26 56 -13 119 35 165 45 43 85 54 240 69 63 6 125 17 139 24 36 19 54 19
47 1z"/>
<path d="M5705 2420 c-68 -10 -161 -37 -209 -62 -84 -43 -172 -160 -189 -255
l-6 -33 138 0 139 0 7 31 c9 42 71 102 121 117 50 15 136 16 186 1 21 -5 51
-24 68 -42 25 -27 30 -40 30 -83 0 -96 -54 -121 -320 -149 -185 -19 -225 -28
-310 -71 -78 -39 -141 -101 -171 -169 -32 -71 -32 -193 -1 -252 53 -101 147
-152 295 -161 133 -7 239 24 322 95 l40 34 3 -50 3 -51 143 0 142 0 -4 58 c-4
59 9 130 88 482 47 210 55 328 27 391 -26 57 -100 116 -176 140 -111 34 -254
46 -366 29z m220 -622 c-23 -106 -70 -204 -122 -252 -67 -63 -197 -84 -278
-45 -36 17 -75 73 -75 108 1 50 36 108 82 134 51 29 68 33 212 47 59 6 122 17
140 25 45 20 48 18 41 -17z"/>
<path d="M2615 2388 c-2 -7 -11 -49 -19 -93 -9 -44 -36 -177 -61 -295 -25
-118 -59 -278 -74 -355 -78 -382 -99 -447 -145 -461 -12 -4 -47 -6 -78 -5
l-56 2 -12 -58 c-6 -32 -17 -84 -24 -116 -13 -57 -13 -57 11 -63 13 -4 79 -4
146 -2 98 3 132 9 172 27 111 49 163 138 210 361 64 299 108 505 135 635 16
77 43 204 60 283 16 78 30 145 30 147 0 3 -65 5 -145 5 -108 0 -147 -3 -150
-12z"/>
<path d="M4210 2385 c0 -8 11 -72 25 -142 13 -71 36 -195 50 -278 29 -164 87
-484 105 -582 l12 -63 -34 -47 c-19 -27 -50 -59 -69 -71 -31 -22 -42 -23 -126
-20 l-92 4 -10 -46 c-26 -125 -33 -171 -27 -186 5 -14 24 -16 164 -12 177 5
216 15 288 74 25 21 65 72 93 118 42 70 342 603 481 856 26 47 58 103 70 125
13 22 48 85 78 140 30 55 58 104 63 109 5 6 9 16 9 23 0 10 -34 13 -150 13
l-150 0 -105 -217 c-58 -120 -142 -295 -187 -390 -46 -95 -86 -172 -89 -173
-3 0 -9 21 -12 48 -3 26 -22 180 -42 342 -20 162 -38 316 -42 343 l-6 47 -148
0 c-126 0 -149 -2 -149 -15z"/>
<path d="M840 755 c0 -14 2 -25 4 -25 2 0 11 -3 20 -6 13 -5 16 1 16 25 0 24
-4 31 -20 31 -15 0 -20 -7 -20 -25z"/>
<path d="M2890 575 c0 -198 1 -205 20 -205 17 0 20 7 20 53 0 44 4 58 25 77
14 13 27 22 29 19 2 -2 25 -37 50 -76 37 -58 52 -73 71 -73 14 0 25 3 25 8 0
4 -25 43 -55 87 -30 43 -55 83 -55 89 0 6 24 32 52 58 l53 47 -30 1 c-23 0
-43 -14 -97 -67 l-68 -67 0 127 c0 120 -1 127 -20 127 -19 0 -20 -7 -20 -205z"/>
<path d="M3380 755 c0 -18 5 -25 20 -25 15 0 20 7 20 25 0 18 -5 25 -20 25
-15 0 -20 -7 -20 -25z"/>
<path d="M3208 708 c-2 -36 -7 -44 -25 -46 -33 -5 -31 -42 2 -42 l25 0 0 -119
c0 -131 0 -131 66 -131 27 0 34 4 34 19 0 14 -8 21 -27 23 l-28 3 -3 103 -3
102 31 0 c23 0 30 4 30 20 0 16 -7 20 -30 20 -29 0 -30 2 -30 45 0 38 -3 45
-19 45 -16 0 -20 -8 -23 -42z"/>
<path d="M4620 705 c0 -41 -2 -45 -25 -45 -18 0 -25 -5 -25 -20 0 -15 7 -20
25 -20 l25 0 0 -113 c0 -75 4 -117 12 -125 7 -7 29 -12 50 -12 31 0 38 4 38
20 0 14 -7 20 -24 20 -32 0 -36 15 -36 121 l0 89 30 0 c23 0 30 5 30 19 0 14
-8 21 -27 23 -25 3 -28 7 -31 46 -3 34 -7 42 -23 42 -16 0 -19 -7 -19 -45z"/>
<path d="M6260 705 c0 -41 -2 -45 -25 -45 -18 0 -25 -5 -25 -20 0 -15 7 -20
25 -20 l25 0 0 -106 c0 -131 6 -144 66 -144 38 0 45 3 42 18 -2 9 -14 19 -28
21 -14 1 -28 8 -32 15 -4 6 -8 52 -8 103 l0 92 32 3 c47 4 51 35 6 40 -31 3
-33 5 -36 46 -3 34 -7 42 -23 42 -16 0 -19 -7 -19 -45z"/>
<path d="M380 660 c-22 -9 -60 -56 -60 -74 0 -16 49 -4 55 13 6 20 33 31 81
31 35 0 54 -16 54 -46 0 -30 -15 -39 -90 -52 -49 -9 -71 -18 -87 -37 -28 -32
-29 -75 -4 -106 16 -20 28 -24 79 -24 43 0 65 5 79 17 25 23 29 22 36 -2 4
-15 14 -20 36 -20 24 0 31 4 31 20 0 11 -7 20 -15 20 -12 0 -15 19 -15 109 0
138 -9 153 -96 157 -32 2 -70 -1 -84 -6z m130 -179 c0 -50 -35 -81 -89 -81
-42 0 -61 14 -61 45 0 39 38 58 143 74 4 0 7 -17 7 -38z"/>
<path d="M714 634 l-34 -35 0 30 c0 24 -4 31 -20 31 -19 0 -20 -7 -20 -145 l0
-145 25 0 c25 0 25 1 25 90 0 49 5 100 11 113 11 25 47 47 74 47 9 0 15 10 15
25 0 37 -36 32 -76 -11z"/>
<path d="M1025 661 c-23 -10 -49 -39 -58 -63 -10 -27 27 -23 57 7 35 34 99 35
121 1 17 -26 11 -53 -13 -60 -10 -3 -44 -10 -77 -15 -44 -8 -66 -18 -82 -36
-37 -43 -29 -96 18 -120 39 -21 87 -19 132 5 29 16 37 17 37 6 0 -15 21 -26
51 -26 12 0 19 7 19 20 0 11 -7 20 -15 20 -12 0 -15 19 -15 109 0 138 -9 153
-96 158 -32 1 -68 -1 -79 -6z m135 -166 c0 -59 -39 -95 -103 -95 -38 0 -57 15
-57 45 0 41 28 54 153 74 4 0 7 -10 7 -24z"/>
<path d="M1624 656 c-19 -9 -35 -26 -42 -45 -10 -28 -9 -31 10 -31 11 0 29 11
40 25 15 20 29 25 62 25 47 0 66 -13 66 -46 0 -30 -15 -39 -90 -52 -82 -14
-115 -46 -106 -101 8 -53 28 -66 96 -66 41 1 64 6 78 18 23 21 32 22 32 2 0
-16 43 -31 59 -20 16 9 13 35 -4 35 -12 0 -15 19 -15 109 0 138 -9 153 -96
158 -36 2 -71 -2 -90 -11z m136 -175 c0 -31 -6 -44 -26 -60 -47 -37 -124 -22
-124 23 0 40 36 59 143 75 4 0 7 -17 7 -38z"/>
<path d="M2145 659 c-11 -6 -26 -19 -32 -27 -11 -14 -13 -13 -13 6 0 17 -6 22
-25 22 l-25 0 0 -145 0 -145 25 0 25 0 0 105 c0 99 2 107 25 130 31 32 89 35
105 6 5 -11 10 -69 10 -130 l0 -111 25 0 25 0 0 110 c0 99 2 111 22 130 27 25
79 26 101 2 14 -15 17 -40 17 -130 0 -105 1 -112 20 -112 19 0 20 7 20 128 0
70 -4 132 -8 138 -30 46 -138 44 -166 -4 -7 -13 -11 -11 -26 8 -20 26 -93 37
-125 19z"/>
<path d="M3704 660 c-28 -11 -54 -48 -54 -75 0 -12 9 -31 20 -43 18 -19 41
-28 122 -46 85 -19 71 -96 -18 -96 -43 0 -84 24 -84 50 0 6 -9 10 -20 10 -42
0 -16 -64 35 -86 71 -29 166 -8 185 42 24 63 -9 104 -95 119 -58 11 -95 32
-95 55 0 44 86 55 126 15 29 -29 54 -33 54 -7 -1 22 -19 45 -47 60 -25 14 -98
15 -129 2z"/>
<path d="M4020 663 c-27 -10 -60 -46 -60 -65 0 -25 25 -22 54 7 35 34 99 35
121 1 17 -26 11 -53 -13 -60 -10 -3 -44 -10 -77 -15 -88 -16 -123 -61 -94
-124 22 -49 98 -61 162 -27 29 16 37 17 37 6 0 -15 21 -26 51 -26 12 0 19 7
19 20 0 11 -7 20 -15 20 -12 0 -15 19 -15 109 0 138 -9 153 -96 157 -32 2 -66
1 -74 -3z m130 -168 c0 -13 -5 -35 -11 -48 -28 -61 -149 -63 -149 -3 0 42 27
55 153 75 4 0 7 -10 7 -24z"/>
<path d="M4365 658 c-11 -6 -26 -18 -32 -26 -11 -14 -13 -13 -13 6 0 17 -6 22
-25 22 l-25 0 0 -145 0 -145 25 0 25 0 0 105 c0 99 2 107 25 130 28 29 80 33
111 11 16 -13 19 -29 22 -130 4 -109 5 -116 24 -116 19 0 20 5 17 126 -4 123
-5 126 -32 150 -31 26 -87 32 -122 12z"/>
<path d="M4841 652 c-68 -36 -92 -141 -51 -221 45 -90 181 -94 244 -8 28 38
29 140 3 180 -41 64 -129 85 -196 49z m120 -32 c26 -15 49 -62 49 -105 0 -102
-94 -152 -161 -86 -25 26 -29 37 -29 86 0 49 4 60 29 86 31 31 75 38 112 19z"/>
<path d="M5159 659 c-15 -5 -32 -23 -39 -39 -25 -61 10 -102 99 -116 44 -7 91
-37 91 -58 0 -25 -36 -46 -79 -46 -35 0 -48 6 -71 30 -51 55 -83 29 -35 -28
29 -34 81 -48 144 -37 54 9 81 37 81 84 0 48 -19 66 -92 85 -75 19 -98 33 -98
56 0 44 87 55 124 15 46 -50 77 -21 33 31 -19 22 -33 28 -78 30 -30 2 -66 -1
-80 -7z"/>
<path d="M5465 657 c-25 -12 -55 -51 -55 -72 0 -15 36 -1 56 20 40 43 134 30
134 -19 0 -31 -15 -42 -70 -50 -74 -11 -106 -25 -119 -52 -28 -61 -1 -112 64
-121 36 -4 68 4 128 35 4 2 7 -3 7 -12 0 -17 42 -32 59 -21 16 9 13 35 -3 35
-11 0 -15 24 -18 115 -2 92 -6 118 -20 132 -23 22 -122 28 -163 10z m135 -176
c0 -31 -6 -44 -26 -60 -36 -28 -98 -28 -117 0 -35 49 8 79 136 98 4 1 7 -17 7
-38z"/>
<path d="M5990 663 c-8 -3 -23 -12 -32 -21 -16 -14 -18 -13 -18 1 0 11 -8 17
-25 17 l-25 0 0 -205 0 -205 25 0 c24 0 25 2 25 74 l0 74 37 -19 c45 -23 84
-24 127 -4 37 18 53 40 65 97 23 102 -28 188 -116 194 -26 2 -55 1 -63 -3z
m91 -43 c26 -15 49 -62 49 -105 0 -102 -94 -152 -161 -86 -25 26 -29 37 -29
86 0 49 4 60 29 86 31 31 75 38 112 19z"/>
<path d="M838 478 c-3 -181 -3 -183 -25 -186 -15 -2 -23 -10 -23 -23 0 -24 36
-26 68 -3 21 15 22 20 22 205 0 182 -1 189 -20 189 -19 0 -20 -8 -22 -182z"/>
<path d="M1312 513 c54 -134 58 -149 47 -180 -11 -34 -42 -55 -66 -46 -8 3
-13 -3 -13 -16 0 -17 6 -21 34 -21 43 0 62 23 100 121 16 41 46 118 68 172 21
53 38 102 38 108 0 6 -10 9 -21 7 -18 -2 -29 -24 -62 -121 -22 -65 -43 -114
-47 -110 -4 4 -19 42 -33 83 -46 134 -55 150 -81 150 -23 0 -22 -3 36 -147z"/>
<path d="M2550 568 c1 -169 18 -203 105 -203 43 0 58 5 79 24 26 24 26 24 26
3 0 -15 6 -22 20 -22 19 0 20 7 20 145 0 136 -1 145 -19 145 -17 0 -19 -10
-23 -106 -3 -102 -4 -107 -31 -130 -34 -29 -87 -32 -110 -6 -14 15 -17 40 -17
130 l0 112 -25 0 c-25 0 -25 0 -25 -92z"/>
<path d="M3380 515 c0 -138 1 -145 20 -145 19 0 20 7 20 145 0 138 -1 145 -20
145 -19 0 -20 -7 -20 -145z"/>
<path d="M6440 395 c0 -18 5 -25 20 -25 15 0 20 7 20 25 0 18 -5 25 -20 25
-15 0 -20 -7 -20 -25z"/>
</g>
</svg>
